<?xml version="1.0" encoding="UTF-8" standalone="no"?>
<svg
   xmlns:dc="http://purl.org/dc/elements/1.1/"
   xmlns:cc="http://creativecommons.org/ns#"
   xmlns:rdf="http://www.w3.org/1999/02/22-rdf-syntax-ns#"
   xmlns:svg="http://www.w3.org/2000/svg"
   xmlns="http://www.w3.org/2000/svg"
   xmlns:sodipodi="http://sodipodi.sourceforge.net/DTD/sodipodi-0.dtd"
   xmlns:inkscape="http://www.inkscape.org/namespaces/inkscape"
   inkscape:export-ydpi="67.628181"
   inkscape:export-xdpi="67.628181"
   inkscape:export-filename="/media/Dati/ALBI/Scout/Immagine coordinata/MarchioPie_WM.png"
   sodipodi:docname="Marchio_Pie.svg"
   inkscape:version="1.0.1 (3bc2e813f5, 2020-09-07)"
   id="svg8"
   version="1.1"
   viewBox="0 0 85 169.9686"
   height="169.9686mm"
   width="85mm">
  <defs
     id="defs2" />
  <sodipodi:namedview
     inkscape:snap-text-baseline="true"
     inkscape:document-rotation="0"
     inkscape:window-maximized="1"
     inkscape:window-y="25"
     inkscape:window-x="0"
     inkscape:window-height="1031"
     inkscape:window-width="2560"
     fit-margin-bottom="0"
     fit-margin-right="0"
     fit-margin-left="0"
     fit-margin-top="0"
     showgrid="false"
     inkscape:current-layer="layer1"
     inkscape:document-units="mm"
     inkscape:cy="383.54324"
     inkscape:cx="-187.92711"
     inkscape:zoom="0.63155305"
     inkscape:pageshadow="2"
     inkscape:pageopacity="0.0"
     borderopacity="1.0"
     bordercolor="#666666"
     pagecolor="#ffffff"
     id="base" />
  <metadata
     id="metadata5">
    <rdf:RDF>
      <cc:Work
         rdf:about="">
        <dc:format>image/svg+xml</dc:format>
        <dc:type
           rdf:resource="http://purl.org/dc/dcmitype/StillImage" />
        <dc:title></dc:title>
      </cc:Work>
    </rdf:RDF>
  </metadata>
  <g
     transform="translate(-93.410694,-145.19091)"
     id="layer1"
     inkscape:groupmode="layer"
     inkscape:label="Livello 1">
    <g
       id="g1002"
       transform="matrix(2.2631481,0,0,2.2631481,-117.99155,-183.39762)">
      <path
         sodipodi:nodetypes="cccccc"
         inkscape:connector-curvature="0"
         id="path4529"
         d="m 93.411,145.19091 h 37.558 l -2.5e-4,66.95109 -18.77875,8.15164 -18.779302,-8.15172 z"
         style="fill:#462678;fill-opacity:1;stroke:none;stroke-width:0.264583px;stroke-linecap:butt;stroke-linejoin:miter;stroke-opacity:1" />
      <g
         transform="matrix(0.07965612,0,0,0.07965612,98.236487,160.6077)"
         id="g4796"
         style="overflow:visible;fill:#ffffff">
        <g
           style="fill:#ffffff"
           id="g4805">
          <path
             id="path4531"
             d="m 197.483,306.281 c 0.173,0.648 0.598,1.201 1.18,1.536 0.581,0.337 1.271,0.427 1.921,0.254 l 12.3,-3.296 c 0.878,-0.234 1.563,-0.922 1.792,-1.801 0.231,-0.879 -0.026,-1.813 -0.676,-2.451 -0.647,-0.636 -1.588,-0.875 -2.462,-0.628 l -17.385,4.658 c -3.694,0.99 -7.492,-1.202 -8.48,-4.896 l -0.973,-3.628 c -0.989,-3.693 1.202,-7.49 4.896,-8.48 l 22.541,-6.04 c 3.693,-0.99 7.49,1.203 8.481,4.896 l 0.654,2.445 -9.364,2.509 c -0.361,-1.351 -1.749,-2.151 -3.1,-1.79 l -12.3,3.296 c -1.351,0.361 -2.152,1.75 -1.79,3.1 0.362,1.352 1.751,2.151 3.1,1.791 l 17.421,-4.669 c 1.773,-0.476 3.663,-0.228 5.254,0.691 1.592,0.919 2.752,2.432 3.227,4.205 l 0.973,3.629 c 0.475,1.773 0.227,3.663 -0.692,5.253 -0.918,1.591 -2.431,2.751 -4.204,3.227 l -22.54,6.039 c -3.694,0.99 -7.491,-1.202 -8.481,-4.896 l -0.655,-2.445 9.362,-2.509"
             inkscape:connector-curvature="0"
             style="fill:#ffffff;stroke:#3f107a;stroke-width:0.1764;stroke-linecap:round;stroke-linejoin:round" />
          <path
             id="path4533"
             d="m 138.539,307 4.001,-9.903 -17.98,-7.264 -2.315,5.729 6.761,2.732 2.231,0.901 -0.842,2.083 c -0.224,0.555 -0.659,0.997 -1.208,1.23 -0.549,0.233 -1.17,0.239 -1.724,0.015 l -13.807,-5.578 c -1.153,-0.466 -1.711,-1.779 -1.244,-2.933 l 4.209,-10.419 c 0.223,-0.554 0.658,-0.996 1.208,-1.229 0.55,-0.234 1.17,-0.239 1.724,-0.015 l 13.807,5.578 c 0.554,0.224 0.996,0.658 1.229,1.208 0.234,0.551 0.239,1.17 0.015,1.725 l 8.988,3.631 0.844,-2.087 c 1.432,-3.547 -0.281,-7.583 -3.827,-9.016 l -23.121,-9.342 c -3.545,-1.432 -7.581,0.281 -9.014,3.826 l -5.897,14.597 c -1.433,3.546 0.28,7.582 3.826,9.014 l 23.121,9.342 c 3.546,1.433 7.581,-0.281 9.015,-3.825"
             inkscape:connector-curvature="0"
             style="fill:#ffffff;stroke:#3f107a;stroke-width:0.1764;stroke-linecap:round;stroke-linejoin:round" />
          <path
             inkscape:connector-curvature="0"
             style="fill:#ffffff;stroke:#3f107a;stroke-width:0.0531074;stroke-linecap:round;stroke-linejoin:round"
             d="m 400.01367,684.2207 -9.21289,3.69141 2.14649,1.93359 2.15625,-0.86328 3.46875,3.12305 -0.63282,2.23437 2.15625,1.94141 2.70703,-9.55078 z m -0.008,2.79688 -0.86133,3.07617 -2.09961,-1.88867 z"
             transform="matrix(3.3215694,0,0,3.3215694,-1233.2572,-2016.2632)"
             id="polyline4535" />
          <polyline
             id="polyline4539"
             points="  181.727,289.181 181.003,296.068 157.948,293.644 157.418,298.678 177.72,300.813 177.073,306.958 156.773,304.826 156.303,309.301   179.357,311.724 178.634,318.609 145.938,315.173 149.031,285.745 181.727,289.181 "
             style="fill:#ffffff;stroke:#3f107a;stroke-width:0.1764;stroke-linecap:round;stroke-linejoin:round" />
          <polyline
             id="polyline4541"
             points="  280.428,270.965 259.45,249.982 253.278,256.225 274.336,277.108 280.453,270.992 "
             style="fill:#ffffff;stroke:#3f107a;stroke-width:0.1764;stroke-linecap:round;stroke-linejoin:round" />
          <path
             id="path4543"
             d="m 257.648,266.038 -8.129,5.279 c -0.679,-1.043 -2.073,-1.34 -3.116,-0.662 l -12.49,8.11 c -1.043,0.677 -1.339,2.073 -0.662,3.116 l 6.121,9.424 c 0.325,0.502 0.837,0.853 1.42,0.977 0.585,0.126 1.194,0.013 1.695,-0.313 l 12.489,-8.11 c 1.044,-0.677 1.341,-2.073 0.663,-3.116 l -1.224,-1.885 8.13,-5.279 2.45,3.773 c 2.083,3.206 1.172,7.495 -2.035,9.578 l -20.914,13.581 c -1.54,1.001 -3.415,1.349 -5.211,0.967 -1.797,-0.382 -3.368,-1.462 -4.367,-3.002 l -8.574,-13.203 c -2.083,-3.207 -1.172,-7.496 2.035,-9.579 l 20.913,-13.581 c 3.208,-2.082 7.496,-1.171 9.579,2.036 l 1.227,1.889"
             inkscape:connector-curvature="0"
             style="fill:#ffffff;stroke:#3f107a;stroke-width:0.1764;stroke-linecap:round;stroke-linejoin:round" />
        </g>
        <path
           inkscape:connector-curvature="0"
           id="path4545"
           transform="matrix(3.3215694,0,0,3.3215694,-1233.2572,-2016.2632)"
           d="m 414.13281,615.1875 c -3.79399,-0.12675 -7.43386,1.50563 -9.86133,4.42383 -2.4952,3.61245 -2.96801,8.2518 -1.25195,12.29297 1.74315,4.2501 4.72007,7.87865 8.54688,10.41992 0.98026,0.58225 1.88904,1.27941 2.70703,2.07422 0.61236,0.5952 0.95703,1.41151 0.95703,2.26562 0,0.85382 -0.34437,1.67268 -0.95703,2.26758 -0.18004,0.17401 -0.38583,0.31515 -0.61133,0.41992 -0.4829,0.18034 -1.00157,0.24515 -1.51367,0.18946 -0.50248,-0.0542 -0.98656,-0.22079 -1.41406,-0.49024 -1.65555,-0.99682 -3.1581,-2.22966 -4.45899,-3.6582 -2.4073,-2.91188 -5.4946,-5.18578 -8.99023,-6.61914 -4.04086,-1.71636 -8.67857,-1.24356 -12.29102,1.25195 -2.9182,2.42747 -4.55283,6.06764 -4.42578,9.86133 0.12675,3.79399 2.00067,7.31571 5.07422,9.54297 -3.06452,2.23358 -4.92825,5.7565 -5.05078,9.54687 -0.12254,3.79008 1.51014,7.4244 4.42382,9.85156 3.61215,2.49581 8.24926,2.96937 12.29102,1.25391 2.58522,-1.05974 4.95535,-2.58194 6.99414,-4.49219 1.70462,-1.474 3.20042,-3.1744 4.44531,-5.05273 0.24718,-0.31642 0.52241,-0.60961 0.82227,-0.87695 1.47099,-1.31354 3.44454,-1.91324 5.39844,-1.64258 1.95329,0.27126 3.69011,1.3862 4.74804,3.05078 0.23062,0.36278 0.42488,0.74802 0.58204,1.14844 0.50126,1.66367 0.68013,3.40786 0.52539,5.13867 -0.26343,2.9471 -0.90462,5.84693 -1.90625,8.63086 -0.5374,1.25151 -1.18096,2.45528 -1.92579,3.5957 l 7.25196,2.4082 0.98437,-3.82812 c 0.43895,-2.94198 0.70102,-5.90922 0.78321,-8.88281 0.0659,-2.38803 0.41615,-4.75952 1.04296,-7.06446 0.15686,-0.40011 0.35112,-0.7837 0.58204,-1.14648 1.05823,-1.66427 2.79445,-2.77922 4.74804,-3.05078 1.9533,-0.27066 3.92715,0.32904 5.39844,1.64258 0.29926,0.26734 0.57479,0.56053 0.82227,0.87695 1.24459,1.87833 2.74039,3.57678 4.44531,5.05078 2.03849,1.91024 4.40922,3.43245 6.99414,4.49219 4.04116,1.71545 8.67887,1.24385 12.29101,-1.25196 2.91399,-2.42716 4.54667,-6.06148 4.42383,-9.85156 -0.12253,-3.79037 -1.98626,-7.31329 -5.05078,-9.54687 3.07415,-2.22726 4.94582,-5.74898 5.07227,-9.54297 0.12705,-3.79369 -1.50593,-7.43386 -4.42383,-9.86133 -3.61275,-2.49551 -8.25016,-2.96801 -12.29102,-1.25195 -3.49503,1.43336 -6.58324,3.70726 -8.99023,6.61914 -1.30089,1.42884 -2.80344,2.66168 -4.45899,3.6582 -0.4275,0.26945 -0.91158,0.43604 -1.41406,0.49024 -0.51241,0.0557 -1.03077,-0.009 -1.51367,-0.18946 -0.2255,-0.10507 -0.43115,-0.24651 -0.60938,-0.41992 -0.61206,-0.5949 -0.95703,-1.41376 -0.95703,-2.26758 0,-0.85411 0.34467,-1.67042 0.95703,-2.26562 0.81799,-0.79481 1.72482,-1.49197 2.70508,-2.07422 3.82681,-2.54127 6.80403,-6.16982 8.54688,-10.41992 1.71636,-4.04086 1.24551,-8.68052 -1.25,-12.29297 -2.42747,-2.9182 -6.06734,-4.55088 -9.86133,-4.42383 -3.79399,0.12675 -7.31601,1.99842 -9.54297,5.07227 -2.22726,-3.07385 -5.74928,-4.94552 -9.54297,-5.07227 z m 0.3418,0.67773 c 3.52099,0.0129 6.97681,1.64877 9.19922,4.68555 3.55585,-4.85855 10.26871,-6.12987 15.35547,-2.9082 5.08645,3.22167 6.80528,9.83413 3.93164,15.125 -1.62664,3.53206 -4.04629,6.64146 -7.07227,9.08398 -0.96671,0.57834 -1.88027,1.24406 -2.72656,1.98828 -1.04288,0.91734 -1.66366,2.22178 -1.71875,3.60938 -0.0325,0.81227 0.13154,1.61937 0.47656,2.35547 0.22791,0.48621 0.72778,0.78582 1.26367,0.7539 1.57607,-0.0936 3.10275,-0.59105 4.43164,-1.44336 1.60437,-1.32587 3.14275,-2.72987 4.61133,-4.20507 2.04,-1.96955 4.39737,-3.58109 6.97266,-4.76758 5.29087,-2.87334 11.90303,-1.15481 15.125,3.93164 3.22197,5.08615 1.95064,11.79932 -2.9082,15.35547 4.8471,3.56488 6.10719,10.27534 2.88281,15.35547 -3.22468,5.08012 -9.83203,6.79625 -15.1211,3.92773 -3.74551,-1.72449 -7.01244,-4.33952 -9.51367,-7.61719 -0.45039,-0.56088 -0.91524,-1.10999 -1.39453,-1.64648 -1.48183,-1.77747 -3.78073,-2.65735 -6.07031,-2.32227 -2.28958,0.33509 -4.24028,1.83724 -5.15039,3.96485 -0.1987,0.36458 -0.36588,0.74683 -0.49805,1.14062 -0.49043,2.35491 -0.80053,4.74266 -0.92969,7.14453 -0.16257,3.02207 -0.44783,6.03823 -0.85547,9.03711 l -0.78906,3.07032 -6.3789,-2.11915 c 0.62259,-0.99952 1.17126,-2.04343 1.64062,-3.12304 0.55215,-1.65434 1.06713,-3.32038 1.54883,-4.9961 0.41727,-1.45232 0.63325,-2.95546 0.63867,-4.46679 0.005,-1.53783 -0.20772,-3.06776 -0.6289,-4.54688 -0.13217,-0.39349 -0.2971,-0.77604 -0.4961,-1.14062 -0.91011,-2.12761 -2.86051,-3.62946 -5.15039,-3.96485 -2.28958,-0.33508 -4.59044,0.5448 -6.07227,2.32227 -0.47868,0.53649 -0.94353,1.0859 -1.39453,1.64648 -2.50122,3.27767 -5.7668,5.8927 -9.51171,7.61719 -5.28937,2.86852 -11.89672,1.15239 -15.1211,-3.92773 -3.22438,-5.08013 -1.96429,-11.79059 2.88281,-15.35547 -4.85854,-3.55615 -6.13017,-10.26932 -2.9082,-15.35547 3.22197,-5.08615 9.83413,-6.80468 15.125,-3.93164 2.57559,1.18649 4.93266,2.79803 6.97266,4.76758 1.46798,1.4752 3.00696,2.87889 4.61133,4.20507 1.32858,0.85201 2.85392,1.34943 4.42968,1.44336 0.53619,0.0319 1.03742,-0.26769 1.26563,-0.7539 0.34532,-0.7361 0.50877,-1.5432 0.47656,-2.35547 -0.0554,-1.3879 -0.67782,-2.69234 -1.7207,-3.60938 -0.84629,-0.74422 -1.7576,-1.40994 -2.72461,-1.98828 -3.02568,-2.44252 -5.44758,-5.55192 -7.07422,-9.08398 -2.87334,-5.29087 -1.15451,-11.90303 3.93164,-15.125 1.90731,-1.20824 4.04366,-1.78509 6.15625,-1.77735 z"
           style="fill:#ffffff;stroke:#40117a;stroke-width:0.0531074;stroke-linecap:round;stroke-linejoin:round" />
        <path
           style="fill:#ffffff;stroke:#3f107a;stroke-width:0.1764;stroke-linecap:round;stroke-linejoin:round"
           inkscape:connector-curvature="0"
           d="m 172.403,365.083 c -0.29,-2.152 -1.22,-4.171 -2.669,-5.791 -3.43,1.935 -6.648,4.225 -9.602,6.831 -0.88,0.523 -1.763,1.043 -2.646,1.561 -0.508,2.001 -0.435,4.107 0.211,6.07 0.915,1.711 1.167,3.699 0.705,5.584 3.476,-1.231 6.702,-3.08 9.525,-5.452 1.247,-1.067 2.551,-2.064 3.905,-2.99 0.606,-0.414 1.222,-0.813 1.848,-1.196 -0.894,-1.37 -1.341,-2.983 -1.277,-4.617"
           id="path4549" />
        <path
           style="fill:#ffffff;stroke:#3f107a;stroke-width:0.1764;stroke-linecap:round;stroke-linejoin:round"
           inkscape:connector-curvature="0"
           d="m 194.526,358.03 c -0.288,-2.13 -1.199,-4.127 -2.623,-5.737 -6.839,0.673 -13.496,2.591 -19.646,5.659 3.094,1.263 5.187,4.188 5.383,7.523 0.088,0.63 0.231,1.249 0.428,1.853 5.638,-2.658 11.763,-4.126 17.991,-4.313 -1.063,-1.439 -1.604,-3.198 -1.533,-4.985"
           id="path4551" />
        <path
           style="fill:#ffffff;stroke:#3f107a;stroke-width:0.1764;stroke-linecap:round;stroke-linejoin:round"
           inkscape:connector-curvature="0"
           d="m 213.265,354.293 c -5.487,-1.606 -11.185,-2.369 -16.901,-2.263 2.011,1.533 3.251,3.866 3.399,6.391 0.093,0.657 0.244,1.304 0.456,1.935 l -0.146,2.709 5.823,0.594 c 3.619,-2.004 6.276,-5.383 7.37,-9.372"
           id="path4553" />
        <path
           style="fill:#ffffff;stroke:#3f107a;stroke-width:0.1764;stroke-linecap:round;stroke-linejoin:round"
           inkscape:connector-curvature="0"
           d="m 223.531,354.338 c -2.09,-0.196 -4.194,0.217 -6.055,1.191 -1.2,4.299 -3.819,8.063 -7.433,10.683 2.433,0.539 4.517,2.098 5.72,4.279 0.756,1.143 1.725,2.131 2.851,2.911 5.753,-5.002 9.439,-11.965 10.346,-19.535 -1.697,0.8 -3.621,0.966 -5.429,0.471"
           id="path4555" />
        <path
           style="fill:#ffffff;stroke:#3f107a;stroke-width:0.1764;stroke-linecap:round;stroke-linejoin:round"
           inkscape:connector-curvature="0"
           d="m 210.868,372.394 c 0.741,1.722 2.072,3.122 3.753,3.951 -4.629,2.864 -9.934,4.448 -15.374,4.588 -2.127,0.056 -4.256,-0.111 -6.349,-0.496 -0.092,-1.366 0.077,-2.738 0.499,-4.043 0.955,-2.302 0.874,-4.902 -0.221,-7.141 1.98,0.549 4.034,0.786 6.087,0.701 2.374,-0.098 4.712,-0.623 6.898,-1.551 1.923,0.848 3.558,2.235 4.707,3.991"
           id="path4557" />
        <path
           style="fill:#ffffff;stroke:#3f107a;stroke-width:0.1764;stroke-linecap:round;stroke-linejoin:round"
           inkscape:connector-curvature="0"
           d="m 188.857,373.753 c -0.884,1.652 -1.15,3.566 -0.749,5.396 -2.451,-0.876 -4.781,-2.062 -6.936,-3.524 l -5.142,-3.5 c 3.854,-2.274 8.048,-3.92 12.422,-4.872 0.194,0.112 0.391,0.225 0.591,0.332 0.535,2.032 0.472,4.173 -0.186,6.168"
           id="path4559" />
        <path
           style="fill:#ffffff;stroke:#3f107a;stroke-width:0.1764;stroke-linecap:round;stroke-linejoin:round"
           inkscape:connector-curvature="0"
           d="m 194.499,342.423 c -0.278,2.122 -1.177,4.114 -2.584,5.726 -6.812,-0.669 -13.445,-2.572 -19.574,-5.618 3.032,-1.298 5.067,-4.203 5.25,-7.496 0.088,-0.658 0.239,-1.307 0.448,-1.936 5.635,2.661 11.757,4.134 17.984,4.325 -1.062,1.445 -1.6,3.208 -1.524,4.999"
           id="path4561" />
        <path
           style="fill:#ffffff;stroke:#3f107a;stroke-width:0.1764;stroke-linecap:round;stroke-linejoin:round"
           inkscape:connector-curvature="0"
           d="m 172.354,335.444 c -0.071,-1.67 0.391,-3.318 1.319,-4.707 -2.054,-1.264 -4.005,-2.685 -5.837,-4.252 l -2.278,-1.566 c -2.851,-1.96 -6.011,-3.426 -9.348,-4.337 -0.678,1.192 -1.121,2.504 -1.308,3.862 -0.139,2.527 -1.375,4.866 -3.384,6.405 2.365,0.416 4.634,1.259 6.696,2.488 l 2.431,1.449 c 2.83,2.415 5.886,4.552 9.125,6.383 1.406,-1.613 2.305,-3.604 2.584,-5.725"
           id="path4563" />
        <path
           style="fill:#ffffff;stroke:#3f107a;stroke-width:0.1764;stroke-linecap:round;stroke-linejoin:round"
           inkscape:connector-curvature="0"
           d="m 149.667,324.854 c -0.08,-1.872 0.511,-3.711 1.667,-5.188 l -1.957,-0.145 c -7.883,-0.326 -15.592,2.383 -21.536,7.572 3.879,2.358 8.123,4.055 12.559,5.021 2.121,-0.897 4.382,-1.418 6.683,-1.537 1.407,-1.611 2.306,-3.602 2.584,-5.723"
           id="path4565" />
        <path
           style="fill:#ffffff;stroke:#3f107a;stroke-width:0.1764;stroke-linecap:round;stroke-linejoin:round"
           inkscape:connector-curvature="0"
           d="m 121.771,334.63 c 0.25,-1.897 -0.005,-3.826 -0.74,-5.594 l 6.031,2.682 c 3.398,1.891 7.026,3.338 10.793,4.304 0.715,1.236 1.001,2.673 0.814,4.086 -0.653,2.456 -0.496,5.056 0.449,7.414 -5.486,-0.99 -10.794,-2.789 -15.751,-5.337 -1.814,-2.067 -2.42,-4.931 -1.596,-7.555"
           id="path4567" />
        <path
           style="fill:#ffffff;stroke:#3f107a;stroke-width:0.1764;stroke-linecap:round;stroke-linejoin:round"
           inkscape:connector-curvature="0"
           d="m 143.021,340.684 c 0.162,-1.223 0.114,-2.465 -0.142,-3.671 4.021,0.559 8.098,0.576 12.124,0.052 3.506,3.304 7.384,6.188 11.559,8.591 -7.072,2.301 -14.531,3.178 -21.945,2.582 -1.814,-2.067 -2.419,-4.931 -1.596,-7.554"
           id="path4569" />
        <path
           style="fill:#ffffff;stroke:#3f107a;stroke-width:0.1764;stroke-linecap:round;stroke-linejoin:round"
           inkscape:connector-curvature="0"
           d="m 143.021,359.757 c 0.162,1.223 0.114,2.464 -0.142,3.671 4.021,-0.561 8.098,-0.578 12.124,-0.053 3.506,-3.305 7.384,-6.188 11.559,-8.592 -7.072,-2.3 -14.531,-3.178 -21.945,-2.58 -1.814,2.066 -2.419,4.929 -1.596,7.554"
           id="path4571" />
        <path
           style="fill:#ffffff;stroke:#3f107a;stroke-width:0.1764;stroke-linecap:round;stroke-linejoin:round"
           inkscape:connector-curvature="0"
           d="m 153.332,369.349 c -1.052,2.219 -1.115,4.778 -0.173,7.045 0.439,1.358 0.604,2.792 0.485,4.215 -1.342,0.245 -2.698,0.401 -4.06,0.468 -8.004,0.385 -15.842,-2.363 -21.854,-7.663 3.834,-2.347 8.028,-4.047 12.414,-5.032 2.976,1.309 6.229,1.864 9.471,1.615 1.256,-0.096 2.501,-0.314 3.717,-0.648 z"
           id="path4573" />
        <path
           style="fill:#ffffff;stroke:#3f107a;stroke-width:0.1764;stroke-linecap:round;stroke-linejoin:round"
           inkscape:connector-curvature="0"
           d="m 121.771,365.811 c 0.388,2.935 -0.441,5.9 -2.292,8.211 1.308,-1.129 2.681,-2.184 4.109,-3.156 4.347,-2.96 9.174,-5.142 14.268,-6.448 0.715,-1.235 1.001,-2.671 0.814,-4.086 -0.653,-2.455 -0.496,-5.056 0.449,-7.413 -2.308,0.417 -4.587,0.977 -6.825,1.678 -3.075,0.962 -6.061,2.187 -8.926,3.66 -1.815,2.066 -2.421,4.929 -1.597,7.554"
           id="path4575" />
        <path
           style="fill:#ffffff;stroke:#3f107a;stroke-width:0.1764;stroke-linecap:round;stroke-linejoin:round"
           inkscape:connector-curvature="0"
           d="m 121.862,345.111 -2.729,-1.402 c -0.983,4.319 -0.988,8.802 -0.015,13.124 3.309,-1.927 6.795,-3.531 10.411,-4.79 -0.113,-1.211 -0.108,-2.429 0.016,-3.64 -2.635,-0.916 -5.202,-2.016 -7.683,-3.292 z"
           id="path4577" />
        <path
           style="fill:#ffffff;stroke:#3f107a;stroke-width:0.1764;stroke-linecap:round;stroke-linejoin:round"
           inkscape:connector-curvature="0"
           d="m 116.119,368.714 c 0.207,1.569 0.069,3.164 -0.405,4.674 l -1.173,5.61 -6.38,7.516 -8.364,-7.104 6.381,-7.513 c 3.176,-3.741 6.828,-7.049 10.861,-9.844 -1.288,1.972 -1.625,4.416 -0.92,6.661"
           id="path4579" />
        <rect
           style="fill:#ffffff;stroke:#3f107a;stroke-width:0.1764;stroke-linecap:round;stroke-linejoin:round"
           x="95.952003"
           y="385.36301"
           transform="matrix(0.7622,0.6473,-0.6473,0.7622,274.0356,26.1405)"
           width="10.973"
           height="1.388"
           id="rect4581" />
        <rect
           style="fill:#ffffff;stroke:#3f107a;stroke-width:0.1764;stroke-linecap:round;stroke-linejoin:round"
           x="91.529999"
           y="387.716"
           transform="matrix(0.7622,0.6473,-0.6473,0.7622,276.3299,30.2293)"
           width="10.973"
           height="7.0960002"
           id="rect4583" />
        <path
           style="fill:#ffffff;stroke:#3f107a;stroke-width:0.1764;stroke-linecap:round;stroke-linejoin:round"
           inkscape:connector-curvature="0"
           d="m 225.444,372.679 c 2.37,-2.849 4.274,-6.055 5.642,-9.498 3.417,2.546 6.533,5.468 9.291,8.716 l 6.382,7.513 -8.364,7.104 -6.381,-7.516 c -1.973,-2.321 -4.173,-4.438 -6.57,-6.319 z"
           id="path4585" />
        <rect
           style="fill:#ffffff;stroke:#3f107a;stroke-width:0.1764;stroke-linecap:round;stroke-linejoin:round"
           x="239.68201"
           y="385.319"
           transform="matrix(-0.7622,0.6473,-0.6473,-0.7622,681.914,521.5385)"
           width="10.972"
           height="1.388"
           id="rect4587" />
        <rect
           style="fill:#ffffff;stroke:#3f107a;stroke-width:0.1764;stroke-linecap:round;stroke-linejoin:round"
           x="244.104"
           y="387.672"
           transform="matrix(-0.7623,0.6473,-0.6473,-0.7623,693.0668,527.8823)"
           width="10.972"
           height="7.0960002"
           id="rect4589" />
        <path
           style="fill:#ffffff;stroke:#3f107a;stroke-width:0.1764;stroke-linecap:round;stroke-linejoin:round"
           inkscape:connector-curvature="0"
           d="m 178.723,326.482 2.45,-1.667 c 2.804,-1.906 5.903,-3.336 9.173,-4.23 0.677,1.191 1.12,2.502 1.306,3.859 0.138,2.489 1.339,4.798 3.297,6.339 -1.718,0.31 -3.388,0.845 -4.964,1.595 -4.49,-0.829 -8.811,-2.401 -12.781,-4.653 0.482,-0.38 0.956,-0.77 1.424,-1.168"
           id="path4591" />
        <path
           style="fill:#ffffff;stroke:#3f107a;stroke-width:0.1764;stroke-linecap:round;stroke-linejoin:round"
           inkscape:connector-curvature="0"
           d="m 213.266,346.154 c -1.112,-4.06 -3.844,-7.482 -7.553,-9.473 -1.878,0.35 -3.777,0.58 -5.684,0.69 l 0.156,2.707 c -0.21,0.631 -0.359,1.278 -0.449,1.936 -0.141,2.521 -1.37,4.855 -3.37,6.396 5.715,0.107 11.412,-0.656 16.898,-2.264"
           id="path4593" />
        <path
           style="fill:#ffffff;stroke:#3f107a;stroke-width:0.1764;stroke-linecap:round;stroke-linejoin:round"
           inkscape:connector-curvature="0"
           d="m 217.308,333.18 c -1.456,1.512 -2.444,3.415 -2.843,5.477 2.613,3.618 3.924,8.013 3.718,12.473 1.938,-1.567 4.456,-2.225 6.912,-1.805 1.366,0.121 2.742,-0.02 4.054,-0.414 -0.325,-7.617 -3.47,-14.841 -8.824,-20.268 -0.433,1.822 -1.504,3.432 -3.017,4.537"
           id="path4595" />
        <path
           style="fill:#ffffff;stroke:#3f107a;stroke-width:0.1764;stroke-linecap:round;stroke-linejoin:round"
           inkscape:connector-curvature="0"
           d="m 116.119,331.725 c 0.228,-1.726 0.038,-3.481 -0.555,-5.117 l -15.696,-7 c 0.757,1.935 0.796,4.076 0.108,6.036 -0.51,1.944 -0.466,3.993 0.125,5.914 l 18.184,8.305 c -2.234,-2.067 -3.077,-5.235 -2.166,-8.138"
           id="path4597" />
        <path
           style="fill:#ffffff;stroke:#3f107a;stroke-width:0.1764;stroke-linecap:round;stroke-linejoin:round"
           inkscape:connector-curvature="0"
           d="m 95.295,323.261 c -0.857,1.845 -0.967,3.947 -0.309,5.871 l -14.801,-8.47 c -0.36,-2.014 -0.142,-4.086 0.631,-5.979 0.938,-1.854 1.18,-3.983 0.68,-5.999 l 13.639,8.408 c 0.649,1.998 0.705,4.142 0.16,6.169"
           id="path4599" />
        <path
           style="fill:#ffffff;stroke:#3f107a;stroke-width:0.1764;stroke-linecap:round;stroke-linejoin:round"
           inkscape:connector-curvature="0"
           d="m 76.487,311.711 c -1.09,1.716 -1.475,3.787 -1.072,5.779 L 61.847,307.16 c -0.095,-2.041 0.392,-4.067 1.405,-5.844 1.171,-1.715 1.689,-3.794 1.458,-5.858 l 12.424,10.116 c 0.382,2.065 0.157,4.197 -0.647,6.137"
           id="path4601" />
        <path
           style="fill:#ffffff;stroke:#3f107a;stroke-width:0.1764;stroke-linecap:round;stroke-linejoin:round"
           inkscape:connector-curvature="0"
           d="m 59.347,297.804 c 0.93,-2.243 1.081,-4.731 0.43,-7.071 l -9.985,-10.58 c -0.04,2.077 -0.824,4.071 -2.209,5.619 -1.236,1.628 -1.984,3.573 -2.157,5.61 l 12.104,12.013 c -0.139,-2.028 0.512,-4.031 1.817,-5.591"
           id="path4603" />
        <path
           style="fill:#ffffff;stroke:#3f107a;stroke-width:0.1764;stroke-linecap:round;stroke-linejoin:round"
           inkscape:connector-curvature="0"
           d="m 44.169,281.78 c -1.497,1.376 -2.404,3.277 -2.532,5.305 L 31.204,273.596 c 0.437,-1.997 1.433,-3.829 2.87,-5.282 1.577,-1.354 2.614,-3.228 2.925,-5.281 l 9.382,12.987 c -0.165,2.094 -0.933,4.095 -2.212,5.76"
           id="path4605" />
        <path
           style="fill:#ffffff;stroke:#3f107a;stroke-width:0.1764;stroke-linecap:round;stroke-linejoin:round"
           inkscape:connector-curvature="0"
           d="m 31.212,263.911 c -1.664,1.168 -2.811,2.935 -3.202,4.93 l -8.583,-14.737 c 0.694,-1.922 1.92,-3.608 3.535,-4.861 1.739,-1.136 3.013,-2.859 3.589,-4.854 l 7.607,14.101 c -0.437,2.052 -1.46,3.936 -2.946,5.421"
           id="path4607" />
        <path
           style="fill:#ffffff;stroke:#3f107a;stroke-width:0.1764;stroke-linecap:round;stroke-linejoin:round"
           inkscape:connector-curvature="0"
           d="m 20.699,244.502 c -1.802,0.941 -3.17,2.543 -3.818,4.47 l -6.586,-15.73 c 0.939,-1.815 2.375,-3.326 4.139,-4.358 1.873,-0.899 3.36,-2.441 4.192,-4.345 l 5.701,14.974 c -0.701,1.979 -1.961,3.712 -3.628,4.989"
           id="path4609" />
        <path
           style="fill:#ffffff;stroke:#3f107a;stroke-width:0.1764;stroke-linecap:round;stroke-linejoin:round"
           inkscape:connector-curvature="0"
           d="m 12.809,223.889 c 1.819,-1.049 3.295,-2.604 4.249,-4.476 L 13.36,203.824 c -1.073,1.778 -2.75,3.113 -4.723,3.761 -1.885,0.792 -3.504,2.104 -4.673,3.781 l 4.477,16.456 c 0.893,-1.825 2.458,-3.235 4.368,-3.933"
           id="path4611" />
        <path
           style="fill:#ffffff;stroke:#3f107a;stroke-width:0.1764;stroke-linecap:round;stroke-linejoin:round"
           inkscape:connector-curvature="0"
           d="m 7.677,202.422 c 1.94,-0.803 3.606,-2.151 4.796,-3.882 l -1.631,-15.939 c -1.296,1.624 -3.132,2.728 -5.173,3.112 -1.973,0.539 -3.75,1.628 -5.126,3.138 l 2.29,16.899 c 1.124,-1.693 2.859,-2.884 4.844,-3.328"
           id="path4613" />
        <path
           style="fill:#ffffff;stroke:#3f107a;stroke-width:0.1764;stroke-linecap:round;stroke-linejoin:round"
           inkscape:connector-curvature="0"
           d="m 5.392,180.469 c 2.028,-0.543 3.855,-1.663 5.261,-3.223 l 0.463,-16.015 c -1.497,1.44 -3.462,2.295 -5.535,2.41 -2.026,0.278 -3.931,1.124 -5.493,2.443 l 0.065,17.054 c 1.336,-1.533 3.213,-2.489 5.239,-2.669"
           id="path4615" />
        <path
           style="fill:#ffffff;stroke:#3f107a;stroke-width:0.1764;stroke-linecap:round;stroke-linejoin:round"
           inkscape:connector-curvature="0"
           d="m 5.99,158.404 c 2.083,-0.273 4.041,-1.144 5.638,-2.508 l 2.55,-15.817 c -1.672,1.232 -3.731,1.824 -5.803,1.667 -2.044,0.01 -4.042,0.602 -5.764,1.705 l -2.162,16.917 c 1.524,-1.347 3.509,-2.049 5.541,-1.964"
           id="path4617" />
        <path
           style="fill:#ffffff;stroke:#3f107a;stroke-width:0.1764;stroke-linecap:round;stroke-linejoin:round"
           inkscape:connector-curvature="0"
           d="m 9.463,136.608 c 2.101,0.001 4.156,-0.607 5.917,-1.751 l 4.592,-15.35 c -1.819,1.004 -3.938,1.321 -5.97,0.895 -2.028,-0.256 -4.087,0.069 -5.938,0.938 l -4.35,16.49 c 1.686,-1.135 3.747,-1.573 5.749,-1.222"
           id="path4619" />
        <path
           style="fill:#ffffff;stroke:#3f107a;stroke-width:0.1764;stroke-linecap:round;stroke-linejoin:round"
           inkscape:connector-curvature="0"
           d="m 15.753,115.451 c 2.082,0.274 4.199,-0.06 6.095,-0.964 l 6.557,-14.619 c -1.934,0.758 -4.076,0.796 -6.037,0.108 -1.977,-0.519 -4.061,-0.465 -6.009,0.156 l -6.466,15.779 c 1.82,-0.905 3.92,-1.069 5.86,-0.46"
           id="path4621" />
        <path
           style="fill:#ffffff;stroke:#3f107a;stroke-width:0.1764;stroke-linecap:round;stroke-linejoin:round"
           inkscape:connector-curvature="0"
           d="m 24.75,95.295 c 2.028,0.544 4.171,0.488 6.169,-0.16 l 8.408,-13.638 c -2.017,0.499 -4.146,0.257 -5.999,-0.681 -1.892,-0.772 -3.965,-0.992 -5.978,-0.631 l -8.471,14.801 c 1.923,-0.658 4.027,-0.548 5.871,0.309"
           id="path4623" />
        <path
           style="fill:#ffffff;stroke:#3f107a;stroke-width:0.1764;stroke-linecap:round;stroke-linejoin:round"
           inkscape:connector-curvature="0"
           d="m 36.301,76.487 c -1.716,-1.09 -3.788,-1.475 -5.78,-1.072 l 10.33,-13.568 c 2.042,-0.095 4.069,0.393 5.844,1.405 1.716,1.171 3.795,1.689 5.859,1.458 L 42.437,77.134 c -2.065,0.382 -4.196,0.158 -6.136,-0.647"
           id="path4625" />
        <path
           style="fill:#ffffff;stroke:#3f107a;stroke-width:0.1764;stroke-linecap:round;stroke-linejoin:round"
           inkscape:connector-curvature="0"
           d="M 50.208,59.347 C 48.648,58.042 46.645,57.391 44.617,57.53 L 56.63,45.426 c 2.037,0.173 3.983,0.921 5.611,2.156 1.548,1.386 3.541,2.17 5.618,2.211 L 56.207,60.789 c -2.097,0.11 -4.181,-0.392 -5.999,-1.442"
           id="path4627" />
        <path
           style="fill:#ffffff;stroke:#3f107a;stroke-width:0.1764;stroke-linecap:round;stroke-linejoin:round"
           inkscape:connector-curvature="0"
           d="m 66.232,44.169 c -1.375,-1.497 -3.276,-2.404 -5.306,-2.531 l 13.49,-10.433 c 1.997,0.438 3.829,1.433 5.282,2.871 1.354,1.576 3.228,2.614 5.282,2.924 l -12.987,9.382 c -2.094,-0.165 -4.095,-0.934 -5.761,-2.213"
           id="path4629" />
        <path
           style="fill:#ffffff;stroke:#3f107a;stroke-width:0.1764;stroke-linecap:round;stroke-linejoin:round"
           inkscape:connector-curvature="0"
           d="m 84.102,31.212 c -1.168,-1.664 -2.935,-2.811 -4.93,-3.202 l 14.736,-8.582 c 1.923,0.693 3.609,1.919 4.862,3.534 1.136,1.739 2.859,3.013 4.854,3.589 L 89.523,34.157 C 87.47,33.722 85.586,32.699 84.102,31.212"
           id="path4631" />
        <path
           style="fill:#ffffff;stroke:#3f107a;stroke-width:0.1764;stroke-linecap:round;stroke-linejoin:round"
           inkscape:connector-curvature="0"
           d="m 103.509,20.699 c -0.941,-1.802 -2.543,-3.17 -4.47,-3.818 l 15.73,-6.586 c 1.816,0.938 3.328,2.375 4.359,4.14 0.899,1.872 2.441,3.359 4.345,4.191 L 108.5,24.327 c -1.979,-0.701 -3.713,-1.961 -4.991,-3.628"
           id="path4633" />
        <path
           style="fill:#ffffff;stroke:#3f107a;stroke-width:0.1764;stroke-linecap:round;stroke-linejoin:round"
           inkscape:connector-curvature="0"
           d="M 124.124,12.809 C 123.425,10.9 122.017,9.334 120.19,8.44 l 16.456,-4.476 c 1.678,1.167 2.989,2.788 3.781,4.673 0.647,1.974 1.981,3.65 3.761,4.723 l -15.59,3.698 c -1.871,-0.954 -3.426,-2.429 -4.474,-4.249"
           id="path4635" />
        <path
           style="fill:#ffffff;stroke:#3f107a;stroke-width:0.1764;stroke-linecap:round;stroke-linejoin:round"
           inkscape:connector-curvature="0"
           d="m 145.59,7.677 c -0.442,-1.984 -1.636,-3.72 -3.33,-4.845 l 16.899,-2.29 c 1.511,1.376 2.6,3.155 3.14,5.126 0.384,2.042 1.488,3.877 3.112,5.174 l -15.938,1.632 c -1.731,-1.19 -3.08,-2.856 -3.883,-4.797"
           id="path4637" />
        <path
           style="fill:#ffffff;stroke:#3f107a;stroke-width:0.1764;stroke-linecap:round;stroke-linejoin:round"
           inkscape:connector-curvature="0"
           d="m 167.543,5.392 c -0.18,-2.026 -1.136,-3.902 -2.668,-5.238 l 17.054,-0.065 c 1.318,1.563 2.166,3.467 2.442,5.493 0.115,2.074 0.971,4.038 2.41,5.535 l -16.015,-0.463 c -1.56,-1.405 -2.68,-3.234 -3.223,-5.262"
           id="path4639" />
        <path
           style="fill:#ffffff;stroke:#3f107a;stroke-width:0.1764;stroke-linecap:round;stroke-linejoin:round"
           inkscape:connector-curvature="0"
           d="m 189.607,5.991 c 0.086,-2.032 -0.617,-4.018 -1.961,-5.542 l 16.914,2.162 c 1.104,1.72 1.694,3.72 1.706,5.764 -0.157,2.071 0.434,4.131 1.667,5.803 l -15.817,-2.55 c -1.364,-1.597 -2.234,-3.555 -2.509,-5.637"
           id="path4641" />
        <path
           style="fill:#ffffff;stroke:#3f107a;stroke-width:0.1764;stroke-linecap:round;stroke-linejoin:round"
           inkscape:connector-curvature="0"
           d="m 211.404,9.464 c 0.351,-2.003 -0.088,-4.063 -1.222,-5.751 l 16.488,4.352 c 0.87,1.85 1.195,3.909 0.939,5.937 -0.427,2.033 -0.108,4.151 0.895,5.971 l -15.35,-4.592 c -1.143,-1.761 -1.751,-3.817 -1.75,-5.917"
           id="path4643" />
        <path
           style="fill:#ffffff;stroke:#3f107a;stroke-width:0.1764;stroke-linecap:round;stroke-linejoin:round"
           inkscape:connector-curvature="0"
           d="m 232.562,15.753 c 0.608,-1.94 0.443,-4.04 -0.461,-5.861 l 15.78,6.467 c 0.62,1.947 0.674,4.031 0.155,6.008 -0.688,1.96 -0.649,4.103 0.108,6.037 l -14.619,-6.557 c -0.905,-1.895 -1.239,-4.012 -0.963,-6.094"
           id="path4645" />
        <path
           style="fill:#ffffff;stroke:#3f107a;stroke-width:0.1764;stroke-linecap:round;stroke-linejoin:round"
           inkscape:connector-curvature="0"
           d="m 252.717,24.75 c 0.856,-1.844 0.968,-3.948 0.309,-5.87 l 14.8,8.47 c 0.36,2.013 0.142,4.085 -0.63,5.978 -0.938,1.854 -1.179,3.983 -0.682,5.999 l -13.637,-8.409 c -0.649,-1.997 -0.704,-4.14 -0.16,-6.168"
           id="path4647" />
        <path
           style="fill:#ffffff;stroke:#3f107a;stroke-width:0.1764;stroke-linecap:round;stroke-linejoin:round"
           inkscape:connector-curvature="0"
           d="m 271.524,36.301 c 1.091,-1.716 1.474,-3.787 1.072,-5.78 l 13.568,10.33 c 0.095,2.042 -0.393,4.069 -1.405,5.844 -1.172,1.715 -1.689,3.794 -1.457,5.858 L 270.877,42.437 c -0.382,-2.064 -0.157,-4.196 0.647,-6.136"
           id="path4649" />
        <path
           style="fill:#ffffff;stroke:#3f107a;stroke-width:0.1764;stroke-linecap:round;stroke-linejoin:round"
           inkscape:connector-curvature="0"
           d="m 288.665,50.208 c -1.051,1.818 -1.552,3.902 -1.442,6 L 298.22,67.86 c 0.041,-2.078 0.825,-4.071 2.21,-5.619 1.236,-1.628 1.984,-3.574 2.156,-5.611 L 290.482,44.617 c 0.139,2.029 -0.513,4.032 -1.817,5.591"
           id="path4651" />
        <path
           style="fill:#ffffff;stroke:#3f107a;stroke-width:0.1764;stroke-linecap:round;stroke-linejoin:round"
           inkscape:connector-curvature="0"
           d="m 303.843,66.233 c -1.279,1.666 -2.049,3.667 -2.213,5.76 l 9.382,12.987 c 0.312,-2.054 1.349,-3.928 2.925,-5.282 1.438,-1.453 2.434,-3.284 2.87,-5.281 l -10.433,-13.49 c -0.127,2.029 -1.034,3.93 -2.531,5.306"
           id="path4653" />
        <path
           style="fill:#ffffff;stroke:#3f107a;stroke-width:0.1764;stroke-linecap:round;stroke-linejoin:round"
           inkscape:connector-curvature="0"
           d="m 316.8,84.102 c -1.486,1.484 -2.509,3.368 -2.946,5.422 l 7.606,14.101 c 0.577,-1.996 1.851,-3.719 3.59,-4.855 1.615,-1.253 2.841,-2.939 3.533,-4.862 l -8.581,-14.736 c -0.392,1.995 -1.539,3.762 -3.202,4.93"
           id="path4655" />
        <path
           style="fill:#ffffff;stroke:#3f107a;stroke-width:0.1764;stroke-linecap:round;stroke-linejoin:round"
           inkscape:connector-curvature="0"
           d="m 327.313,103.509 c -1.667,1.278 -2.926,3.012 -3.627,4.991 l 5.7,14.974 c 0.831,-1.904 2.318,-3.446 4.19,-4.345 1.766,-1.031 3.201,-2.543 4.14,-4.359 l -6.585,-15.73 c -0.649,1.927 -2.018,3.528 -3.818,4.469"
           id="path4657" />
        <path
           style="fill:#ffffff;stroke:#3f107a;stroke-width:0.1764;stroke-linecap:round;stroke-linejoin:round"
           inkscape:connector-curvature="0"
           d="m 335.203,124.123 c -1.82,1.049 -3.296,2.604 -4.249,4.475 l 3.697,15.589 c 1.073,-1.778 2.75,-3.113 4.724,-3.761 1.884,-0.792 3.506,-2.103 4.673,-3.78 l -4.477,-16.456 c -0.893,1.826 -2.459,3.235 -4.368,3.933"
           id="path4659" />
        <path
           style="fill:#ffffff;stroke:#3f107a;stroke-width:0.1764;stroke-linecap:round;stroke-linejoin:round"
           inkscape:connector-curvature="0"
           d="m 340.334,145.59 c -1.94,0.803 -3.606,2.151 -4.796,3.882 l 1.631,15.938 c 1.297,-1.624 3.133,-2.728 5.175,-3.112 1.972,-0.539 3.748,-1.628 5.126,-3.139 l -2.29,-16.899 c -1.125,1.695 -2.862,2.887 -4.846,3.33"
           id="path4661" />
        <path
           style="fill:#ffffff;stroke:#3f107a;stroke-width:0.1764;stroke-linecap:round;stroke-linejoin:round"
           inkscape:connector-curvature="0"
           d="m 342.62,167.544 c -2.028,0.542 -3.856,1.662 -5.262,3.223 l -0.463,16.015 c 1.496,-1.441 3.461,-2.295 5.535,-2.411 2.025,-0.276 3.931,-1.123 5.492,-2.442 l -0.063,-17.053 c -1.337,1.532 -3.213,2.488 -5.239,2.668"
           id="path4663" />
        <path
           style="fill:#ffffff;stroke:#3f107a;stroke-width:0.1764;stroke-linecap:round;stroke-linejoin:round"
           inkscape:connector-curvature="0"
           d="m 342.022,189.607 c -2.083,0.274 -4.042,1.145 -5.64,2.509 l -2.549,15.817 c 1.673,-1.232 3.73,-1.824 5.803,-1.666 2.045,-0.011 4.043,-0.603 5.765,-1.706 l 2.161,-16.916 c -1.523,1.346 -3.509,2.048 -5.54,1.962"
           id="path4665" />
        <path
           style="fill:#ffffff;stroke:#3f107a;stroke-width:0.1764;stroke-linecap:round;stroke-linejoin:round"
           inkscape:connector-curvature="0"
           d="m 338.548,211.405 c -2.101,-0.001 -4.155,0.607 -5.917,1.751 l -4.593,15.351 c 1.818,-1.005 3.938,-1.322 5.972,-0.896 2.027,0.256 4.087,-0.069 5.938,-0.938 l 4.351,-16.489 c -1.688,1.134 -3.749,1.571 -5.751,1.221"
           id="path4667" />
        <path
           style="fill:#ffffff;stroke:#3f107a;stroke-width:0.1764;stroke-linecap:round;stroke-linejoin:round"
           inkscape:connector-curvature="0"
           d="m 332.258,232.561 c -2.081,-0.273 -4.199,0.061 -6.095,0.965 l -6.556,14.618 c 1.935,-0.758 4.077,-0.796 6.037,-0.108 1.976,0.519 4.061,0.466 6.008,-0.156 l 6.467,-15.778 c -1.82,0.903 -3.922,1.068 -5.861,0.459"
           id="path4669" />
        <path
           style="fill:#ffffff;stroke:#3f107a;stroke-width:0.1764;stroke-linecap:round;stroke-linejoin:round"
           inkscape:connector-curvature="0"
           d="m 323.263,252.716 c -2.029,-0.544 -4.172,-0.488 -6.169,0.159 l -8.408,13.64 c 2.016,-0.499 4.146,-0.257 5.999,0.681 1.893,0.772 3.966,0.991 5.977,0.63 l 8.471,-14.801 c -1.925,0.659 -4.027,0.549 -5.87,-0.309"
           id="path4671" />
        <path
           style="fill:#ffffff;stroke:#3f107a;stroke-width:0.1764;stroke-linecap:round;stroke-linejoin:round"
           inkscape:connector-curvature="0"
           d="m 311.711,271.526 c -1.939,-0.805 -4.071,-1.029 -6.136,-0.646 l -10.118,12.423 c 2.065,-0.231 4.145,0.285 5.86,1.458 1.774,1.014 3.802,1.501 5.844,1.405 l 10.331,-13.568 c -1.993,0.402 -4.065,0.018 -5.781,-1.072"
           id="path4673" />
        <path
           style="fill:#ffffff;stroke:#3f107a;stroke-width:0.1764;stroke-linecap:round;stroke-linejoin:round"
           inkscape:connector-curvature="0"
           d="m 297.805,288.666 c -1.818,-1.051 -3.903,-1.553 -6.001,-1.443 l -11.651,10.998 c 2.077,0.04 4.07,0.824 5.619,2.21 1.628,1.235 3.573,1.983 5.61,2.157 l 12.013,-12.104 c -2.028,0.138 -4.032,-0.514 -5.59,-1.818"
           id="path4675" />
        <path
           style="fill:#ffffff;stroke:#3f107a;stroke-width:0.1764;stroke-linecap:round;stroke-linejoin:round"
           inkscape:connector-curvature="0"
           d="m 281.779,303.843 c -1.666,-1.279 -3.667,-2.048 -5.761,-2.212 l -12.987,9.381 c 2.055,0.311 3.929,1.35 5.282,2.924 1.453,1.438 3.284,2.434 5.281,2.871 l 13.489,-10.434 c -2.027,-0.125 -3.929,-1.033 -5.304,-2.53 z"
           id="path4677" />
        <path
           style="fill:#ffffff;stroke:#3f107a;stroke-width:0.1764;stroke-linecap:round;stroke-linejoin:round"
           inkscape:connector-curvature="0"
           d="m 196.887,324.854 c 0.274,2.082 1.145,4.041 2.51,5.637 4.457,0.214 8.71,1.93 12.068,4.87 -0.016,-2.493 1.04,-4.871 2.899,-6.529 0.945,-0.992 1.693,-2.155 2.203,-3.427 -4.984,-3.639 -10.947,-5.692 -17.115,-5.893 -1.413,-0.046 -2.826,0.005 -4.231,0.154 1.155,1.477 1.746,3.316 1.666,5.188 z"
           id="path4679" />
        <path
           style="fill:#ffffff;stroke:#3f107a;stroke-width:0.1764;stroke-linecap:round;stroke-linejoin:round"
           inkscape:connector-curvature="0"
           d="m 263.91,316.798 c -1.484,-1.484 -3.367,-2.508 -5.423,-2.944 l -14.101,7.606 c 1.996,0.576 3.719,1.85 4.855,3.589 1.253,1.615 2.939,2.841 4.862,3.534 l 14.734,-8.582 c -1.993,-0.39 -3.759,-1.538 -4.927,-3.203"
           id="path4681" />
        <path
           style="fill:#ffffff;stroke:#3f107a;stroke-width:0.1764;stroke-linecap:round;stroke-linejoin:round"
           inkscape:connector-curvature="0"
           d="m 244.503,327.313 c -1.278,-1.667 -3.013,-2.928 -4.99,-3.629 l -13.682,5.864 c 2.136,3.018 3.764,6.363 4.823,9.905 l 18.318,-8.321 c -1.927,-0.649 -3.529,-2.017 -4.469,-3.819 z"
           id="path4683" />
        <path
           inkscape:connector-curvature="0"
           id="path4685"
           transform="matrix(3.3215694,0,0,3.3215694,-1233.2572,-2016.2632)"
           d="m 400.08008,646.67578 c -4.05983,0.0873 -7.72007,2.46751 -9.44727,6.14258 -0.86676,1.84431 -1.33975,3.84748 -1.38672,5.88476 -0.14421,6.24555 4.60741,11.52201 10.83399,12.0293 -1.02392,-2.88809 -0.0272,-6.10664 2.45117,-7.9082 1.48032,-0.86646 3.31703,-0.85178 4.7832,0.0391 1.42644,0.86676 2.6755,1.99712 3.67774,3.33203 2.02675,-0.40884 4.07909,-0.67898 6.14258,-0.81054 -0.84298,-4.475 -2.77365,-8.67478 -5.6211,-12.22852 -1.4734,-1.85033 -3.25408,-3.43329 -5.26367,-4.67969 -1.85515,-1.15036 -3.98752,-1.77278 -6.16992,-1.80078 z m -2.17188,5.97852 1.05469,3.24414 h 3.41016 l -2.75977,2.0039 1.05469,3.24414 -2.75977,-2.0039 -2.75976,2.0039 1.05468,-3.24414 -2.75976,-2.0039 h 3.41211 z"
           style="fill:#ffffff;stroke:#3f107a;stroke-width:0.0531074;stroke-linecap:round;stroke-linejoin:round" />
        <path
           inkscape:connector-curvature="0"
           id="path4687"
           transform="matrix(3.3215694,0,0,3.3215694,-1233.2572,-2016.2632)"
           d="m 447.26953,646.67578 c -2.1824,0.028 -4.31673,0.65042 -6.17187,1.80078 -2.00929,1.2464 -3.79058,2.82936 -5.26368,4.67969 -2.84744,3.55374 -4.77616,7.75352 -5.61914,12.22852 2.06379,0.13156 4.11613,0.4017 6.14258,0.81054 1.00254,-1.33491 2.24935,-2.46527 3.67578,-3.33203 1.46618,-0.89084 3.30288,-0.90552 4.78321,-0.0391 2.47864,1.80156 3.47673,5.02011 2.45312,7.9082 6.22597,-0.50729 10.97624,-5.78375 10.83203,-12.0293 -0.0473,-2.03728 -0.5177,-4.04045 -1.38476,-5.88476 -1.7272,-3.67507 -5.38774,-6.05527 -9.44727,-6.14258 z m 2.16992,5.97852 1.05469,3.24414 h 3.41016 l -2.75977,2.0039 1.05469,3.24414 -2.75977,-2.0039 -2.75976,2.0039 1.05469,-3.24414 -2.75977,-2.0039 h 3.41016 z"
           style="fill:#ffffff;stroke:#3f107a;stroke-width:0.0531074;stroke-linecap:round;stroke-linejoin:round" />
        <path
           style="fill:#ffffff;stroke:#3f107a;stroke-width:0.1764;stroke-linecap:round;stroke-linejoin:round"
           inkscape:connector-curvature="0"
           d="m 174.006,249.562 -4.845,-32.852 c -3.862,-0.059 -7.724,-0.189 -11.581,-0.391 -1.705,11.164 -6.494,21.633 -13.829,30.222 7.57,11.124 18.03,19.973 30.254,25.595 12.225,-5.622 22.685,-14.471 30.253,-25.595 -7.333,-8.589 -12.122,-19.058 -13.827,-30.222 -3.858,0.201 -7.719,0.332 -11.582,0.391 z"
           id="path4689" />
        <path
           style="fill:#ffffff;stroke:#3f107a;stroke-width:0.1764;stroke-linecap:round;stroke-linejoin:round"
           inkscape:connector-curvature="0"
           d="m 137.55,214.34 c 5.144,0.783 10.318,1.349 15.51,1.695 -0.696,5.854 -2.525,11.517 -5.384,16.673 -2.694,5.208 -7.208,9.245 -12.685,11.34 -4.968,1.551 -10.379,0.629 -14.551,-2.481 -4.234,-2.954 -7.06,-7.525 -7.809,-12.634 5.693,1.924 11.924,1.438 17.249,-1.347 2.725,-1.425 4.913,-3.698 6.232,-6.477 1.004,-2.114 1.469,-4.444 1.352,-6.783"
           id="path4691" />
        <path
           style="fill:#ffffff;stroke:#3f107a;stroke-width:0.1764;stroke-linecap:round;stroke-linejoin:round"
           inkscape:connector-curvature="0"
           d="m 210.462,214.34 c -5.145,0.783 -10.318,1.349 -15.509,1.695 0.695,5.854 2.524,11.517 5.383,16.673 2.694,5.208 7.209,9.245 12.685,11.34 4.969,1.551 10.379,0.629 14.554,-2.481 4.233,-2.954 7.058,-7.525 7.807,-12.634 -5.692,1.924 -11.925,1.438 -17.248,-1.347 -2.727,-1.425 -4.914,-3.698 -6.233,-6.477 -1.004,-2.114 -1.469,-4.444 -1.352,-6.783"
           id="path4693" />
        <ellipse
           style="fill:#ffffff;stroke:#3f107a;stroke-width:0.1764;stroke-linecap:round;stroke-linejoin:round"
           transform="rotate(-179.9923,174.00587,204.92136)"
           cx="174.006"
           cy="204.92101"
           rx="50.854"
           ry="8.0959997"
           id="ellipse4695" />
        <path
           style="fill:#ffffff;stroke:#3f107a;stroke-width:0.1764;stroke-linecap:round;stroke-linejoin:round"
           inkscape:connector-curvature="0"
           d="m 174.006,106.273 -5.798,86.874 c -3.566,0.062 -7.13,0.189 -10.691,0.379 -0.882,-7.813 -2.645,-15.499 -5.257,-22.914 -2.954,-9.133 -6.37,-18.11 -10.234,-26.897 -3.6,-8.457 -6.344,-17.252 -8.193,-26.255 -3.54,-14.45 0.617,-29.705 10.999,-40.361 5.998,-5.896 12.254,-11.521 18.752,-16.861 4.865,-3.998 8.482,-9.308 10.422,-15.298 1.939,5.991 5.557,11.3 10.422,15.298 6.498,5.34 12.755,10.965 18.752,16.861 10.381,10.656 14.539,25.911 10.998,40.361 -1.848,9.003 -4.593,17.798 -8.192,26.255 -3.862,8.787 -7.278,17.764 -10.233,26.897 -2.611,7.415 -4.375,15.101 -5.257,22.914 -3.562,-0.19 -7.125,-0.317 -10.691,-0.379 z"
           id="path4697" />
      </g>
      <path
         sodipodi:nodetypes="ccccccccccccsscscscccccccccsccscccccccccscccccccccccccccccccccccccccccccccccccccccccccsccccccccccccccccsccccccccccccccccccccscccccccccccccccccccccccccccccccccccccccccccccccccccccscscccscccscccccccccccccccccccccccssccccccccscccccccscccscccccccccccccccccccccccccccccccccccccccccccccccccccccccccccccccccccccccccssccccccccccccccccccccccccccccc"
         style="fill:#ffffff;stroke-width:0.0299442"
         d="m 112.96062,200.88114 c -0.2517,-0.0309 -0.51892,-0.13363 -0.63919,-0.24574 -0.0962,-0.0896 -0.19989,-0.30272 -0.24044,-0.49383 -0.0499,-0.23477 -0.0442,-1.91845 0.007,-2.13646 0.0865,-0.36736 0.26074,-0.54039 0.64871,-0.64406 0.28003,-0.0748 1.27817,-0.0753 1.55635,-9.2e-4 0.39307,0.10533 0.60971,0.3263 0.68435,0.69808 0.0456,0.22691 0.0461,1.83899 4.6e-4,2.05331 -0.0888,0.41851 -0.32058,0.64908 -0.74492,0.74082 -0.22211,0.0481 -0.97672,0.0649 -1.27261,0.0286 z m 1.11133,-0.6289 c 0.10202,-0.0511 0.16085,-0.1062 0.20463,-0.19154 0.0578,-0.11267 0.0614,-0.17127 0.0614,-0.98815 0,-0.85296 -9.2e-4,-0.87035 -0.0685,-0.97865 -0.10808,-0.1738 -0.26494,-0.21923 -0.7549,-0.21861 -0.35924,4.6e-4 -0.41977,0.008 -0.5437,0.0687 -0.24396,0.11929 -0.24982,0.1468 -0.24982,1.17348 0,0.78875 0.006,0.89375 0.0531,0.98039 0.1078,0.1973 0.28511,0.24912 0.80536,0.23537 0.29735,-0.008 0.37063,-0.0198 0.4925,-0.0809 z m -16.008538,-1.15267 v -1.78458 l 1.040559,0.0132 c 0.858962,0.011 1.067149,0.0216 1.192919,0.0625 0.28579,0.0926 0.44975,0.25101 0.52892,0.51107 0.0238,0.0786 0.0373,0.31656 0.0373,0.66174 0,0.49908 -0.005,0.55005 -0.0688,0.68833 -0.10567,0.2293 -0.21898,0.32918 -0.4684,0.4129 -0.0504,0.017 -0.428451,0.0388 -0.840184,0.0487 l -0.748601,0.018 -0.0082,0.57643 -0.0082,0.57642 H 98.39197 98.063231 Z m 1.913621,0.009 c 0.184657,-0.0647 0.226207,-0.1596 0.236147,-0.53938 0.01,-0.37281 -0.0245,-0.48582 -0.18307,-0.60216 -0.07884,-0.0579 -0.124722,-0.062 -0.688719,-0.062 h -0.604234 l -0.0082,0.62134 -0.0082,0.62135 0.577032,-0.002 c 0.365823,-8.9e-4 0.614371,-0.0149 0.679034,-0.0374 z m 1.829387,-0.006 v -1.78167 h 0.3294 0.32939 v 1.78167 1.78167 h -0.32939 -0.3294 z m 1.70682,0 v -1.78167 h 1.21274 1.21274 v 0.28402 0.284 l -0.87587,0.008 -0.87587,0.008 v 0.44917 0.44916 l 0.83095,0.008 0.83095,0.008 v 0.26903 0.26902 h -0.83919 -0.83919 l 0.008,0.47163 0.008,0.47162 0.87586,0.008 0.87586,0.008 v 0.28402 0.28402 h -1.21273 -1.21273 z m 3.44358,0 v -1.78167 h 0.53367 0.53368 l 0.47365,1.29507 c 0.2605,0.7123 0.48017,1.30664 0.48817,1.32075 0.008,0.0141 0.0248,0.009 0.0375,-0.0115 0.0126,-0.0203 0.22991,-0.61468 0.48285,-1.32055 l 0.45987,-1.28338 0.54648,-2.4e-4 0.54648,-2.3e-4 v 1.78167 1.78168 h -0.33227 -0.33227 l 0.0174,-0.30693 c 0.0344,-0.60903 0.0542,-2.70298 0.0253,-2.67252 -0.0157,0.0166 -0.27513,0.69357 -0.57676,1.50469 l -0.5484,1.47464 h -0.30386 -0.30386 l -0.54938,-1.45978 c -0.30218,-0.80288 -0.56102,-1.48 -0.57526,-1.50469 -0.0267,-0.0463 -0.007,2.10172 0.0242,2.65755 l 0.0174,0.30692 h -0.33226 -0.33226 v -1.78167 z m 9.04312,0 v -1.78167 h 0.54984 0.54982 l 0.74182,1.45976 c 0.40798,0.80288 0.75479,1.47326 0.77064,1.48971 0.0187,0.0192 0.0211,-0.50421 0.007,-1.45976 l -0.0215,-1.48971 h 0.33309 0.33309 v 1.78167 1.78167 h -0.56292 -0.56291 l -0.7296,-1.4448 c -0.40128,-0.79464 -0.74857,-1.47177 -0.77177,-1.50469 -0.0363,-0.0518 -0.0398,0.10303 -0.0245,1.13787 0.01,0.65876 0.0255,1.33588 0.0349,1.50469 l 0.0174,0.30693 h -0.33227 -0.33226 z m 5.09052,0.28446 v -1.49721 h -0.50905 -0.50906 v -0.28447 -0.28445 h 1.36245 1.36246 v 0.28376 0.28375 l -0.51653,0.008 -0.51653,0.008 -0.008,1.48972 -0.007,1.48971 h -0.32911 -0.3291 z m 2.42547,-0.28446 v -1.78167 h 1.21274 1.21272 v 0.28401 0.28401 l -0.87586,0.008 -0.87586,0.008 v 0.44916 0.44916 l 0.83096,0.008 0.83093,0.008 v 0.26903 0.26902 h -0.83919 -0.8392 l 0.008,0.47164 0.008,0.47162 0.87588,0.008 0.87587,0.008 v 0.28402 0.28401 h -1.21274 -1.21275 z m -13.65743,-3.24751 c -0.16162,-0.0294 -0.28989,-0.0911 -0.36683,-0.17604 -0.11795,-0.13035 -0.13663,-0.26128 -0.13801,-0.967 -9.2e-4,-0.7269 0.0194,-0.86179 0.1569,-1.00887 0.14696,-0.15738 0.20611,-0.17019 0.7859,-0.17019 0.4671,0 0.55701,0.007 0.66679,0.0573 0.16165,0.0729 0.23566,0.194 0.26221,0.4294 l 0.0211,0.18716 h -0.13862 -0.13862 v -0.1371 c 0,-0.1104 -0.0165,-0.15347 -0.0844,-0.22144 -0.0748,-0.0748 -0.11388,-0.0869 -0.34594,-0.10618 -0.30421,-0.0254 -0.70558,0.0178 -0.81128,0.087 -0.11262,0.0737 -0.13547,0.22329 -0.13561,0.88682 -1.5e-4,0.70826 0.0185,0.78095 0.22437,0.8825 0.1016,0.0501 0.17879,0.0587 0.50904,0.0566 0.57808,-0.004 0.6296,-0.0402 0.66253,-0.46861 l 0.0202,-0.2608 h -0.37872 -0.37873 v -0.10481 -0.10479 h 0.49763 0.4976 l -0.0119,0.38221 c -0.0148,0.47404 -0.0589,0.58374 -0.27873,0.69389 -0.12978,0.0649 -0.19008,0.0737 -0.5524,0.0806 -0.2237,0.004 -0.46867,-0.004 -0.54437,-0.0176 z m 3.17244,-0.0111 c -0.19847,-0.0561 -0.29173,-0.12659 -0.35665,-0.26958 -0.0507,-0.1118 -0.0569,-0.20367 -0.0574,-0.87467 -4.5e-4,-0.71864 0.002,-0.75527 0.0666,-0.88333 0.0473,-0.0937 0.10766,-0.15598 0.20213,-0.20843 0.12747,-0.0707 0.15981,-0.0748 0.59888,-0.0748 0.30662,-2e-5 0.50172,0.0133 0.57494,0.0392 0.14122,0.0502 0.28364,0.2117 0.31441,0.35686 0.0132,0.0622 0.0239,0.4296 0.0239,0.81662 0,0.69592 -9e-4,0.70518 -0.0752,0.83807 -0.0497,0.0889 -0.12031,0.15923 -0.20825,0.20774 -0.11957,0.0659 -0.17404,0.0743 -0.53862,0.0825 -0.27081,0.007 -0.45188,-0.004 -0.54487,-0.0302 z m 0.76688,-0.19949 c 0.32176,-0.0527 0.3747,-0.18414 0.37396,-0.92864 -4.6e-4,-0.52877 -0.0357,-0.76961 -0.12571,-0.85956 -0.0927,-0.0927 -0.41348,-0.14388 -0.72035,-0.11512 -0.45117,0.0423 -0.4698,0.0801 -0.46986,0.95319 -6e-5,0.83099 0.0227,0.89852 0.32013,0.94848 0.20637,0.0347 0.4168,0.0352 0.62183,0.002 z m -8.69754,-0.94641 v -1.15566 l 0.69619,0.0114 c 0.77627,0.0127 0.85666,0.0296 0.98371,0.20789 0.0662,0.0931 0.0718,0.12851 0.0718,0.46437 0,0.4113 -0.0174,0.45111 -0.23957,0.5532 -0.0658,0.0302 -0.0955,0.0554 -0.0658,0.0558 0.0917,9.2e-4 0.21719,0.0822 0.2547,0.16452 0.0217,0.048 0.0357,0.22944 0.0357,0.46638 v 0.38787 h -0.11732 -0.11734 l -0.01,-0.37683 -0.01,-0.37684 -0.0979,-0.0874 -0.0979,-0.0874 h -0.52356 -0.52355 v 0.46414 0.46414 h -0.11977 -0.11978 z m 1.18156,-0.0118 c 0.27589,-0.0452 0.32799,-0.11386 0.34106,-0.44954 0.0103,-0.26246 0.008,-0.27007 -0.0769,-0.35553 -0.0781,-0.0781 -0.1143,-0.0895 -0.33982,-0.1075 -0.13886,-0.0112 -0.38725,-0.0159 -0.55192,-0.0107 l -0.29945,0.01 -0.008,0.4328 c -0.005,0.23805 -0.002,0.45027 0.007,0.47162 0.0183,0.0478 0.65515,0.0541 0.92883,0.009 z m 1.12414,0.0147 v -1.15285 h 0.73363 0.73362 v 0.1048 0.10482 h -0.61385 -0.61384 v 0.40424 0.40425 h 0.5839 0.58391 v 0.1048 0.1048 h -0.58391 -0.5839 v 0.43421 0.43418 h 0.61384 0.61385 v 0.1048 0.10481 h -0.73362 -0.73363 z m 4.37185,0 v -1.15285 h 0.11977 0.11977 v 1.15285 1.15286 h -0.11977 -0.11977 z m 3.17407,0 v -1.15285 l 0.21709,9e-4 0.2171,9.2e-4 0.64379,1.05074 0.6438,1.05076 0.008,-1.05164 0.008,-1.05163 h 0.11938 0.1194 v 1.15286 1.15284 l -0.20213,-4.5e-4 -0.2021,-4.6e-4 -0.64364,-1.03253 c -0.35398,-0.56789 -0.65379,-1.03254 -0.66625,-1.03254 -0.0125,0 -0.0226,0.4649 -0.0226,1.03306 v 1.0331 h -0.1198 -0.11976 z m 2.54526,0 v -1.15285 h 0.73363 0.73362 v 0.1048 0.10482 h -0.61385 -0.61385 v 0.40424 0.40425 h 0.58391 0.58391 v 0.1048 0.1048 h -0.58391 -0.58391 v 0.43421 0.43418 h 0.61385 0.61385 v 0.1048 0.10481 h -0.73362 -0.73363 z"
         id="path929-3" />
    </g>
  </g>
</svg>
